# xmcd
#
# Track frame offsets:
#	150
#	12140
#	34003
#	49653
#	63155
#	75343
#	88895
#	101460
#	113335
#	132523
#	147973
#	163515
#
# Disc length: 2341 seconds
#
# Revision: 0
# Processed by: cddbd v1.5.1PL2 Copyright (c) Steve Scherf et al.
# Submitted via: audiograbber 1.82.02
#
DISCID=8b09230c
DTITLE=Boxcar Willie - Hey, Man!
DYEAR=1900
DGENRE=Country
TTITLE0=Hey, Man!
TTITLE1=Dick And Jane
TTITLE2=Not The End Of Your World
TTITLE3=Your Down In The Vally
TTITLE4=Rocky Road
TTITLE5=Lovin And Hurtin'
TTITLE6=Aint Gonna Sin No More
TTITLE7=Darlin I Love You
TTITLE8=Mr. Hank
TTITLE9=Drinking Up My Mind
TTITLE10=My Wife Won't Leave
TTITLE11=Blue Love
EXTD=
EXTT0=
EXTT1=
EXTT2=
EXTT3=
EXTT4=
EXTT5=
EXTT6=
EXTT7=
EXTT8=
EXTT9=
EXTT10=
EXTT11=
PLAYORDER=
